<svg id="a821d2a9-7615-4c36-b076-bb32acc9847e" data-name="Layer 1" xmlns="http://www.w3.org/2000/svg" viewBox="0 0 582.01 485.65"><title>Untitled-5</title><path d="M708.83,491.88v46a12.56,12.56,0,0,0,4.56,9.68L997,782.15a4.21,4.21,0,0,0,5.34,0l284-233.29a12.59,12.59,0,0,0,4.59-9.71V491.88l-282.17,65.28a50,50,0,0,1-18.92,0Z" transform="translate(-708.83 -297.46)" style="fill:#00a9c8"/><path d="M999.84,783.11a4.19,4.19,0,0,0,2.46-1l284-233.29a12.59,12.59,0,0,0,4.59-9.71V491.88l-282.17,65.28a43.38,43.38,0,0,1-8.83.89" transform="translate(-708.83 -297.46)" style="fill:#087593"/><path d="M716.27,468.42H1283.4l-43.78-55.65a12.14,12.14,0,0,0-9.56-4.69H768.86a12.18,12.18,0,0,0-9.63,4.77Z" transform="translate(-708.83 -297.46)" style="fill:#00a9c8"/><path d="M785,384.62h429.65l-35.6-44.05a12.15,12.15,0,0,0-9.46-4.56H830.07a12.17,12.17,0,0,0-9.46,4.56Z" transform="translate(-708.83 -297.46)" style="fill:#00a9c8"/><path d="M999.84,384.62h214.82l-35.6-44.05a12.15,12.15,0,0,0-9.46-4.56H999.84" transform="translate(-708.83 -297.46)" style="fill:#087593"/><path d="M1092.54,318.41,1079,302a12.6,12.6,0,0,0-9.7-4.57h-139a12.6,12.6,0,0,0-9.7,4.57l-13.51,16.38Z" transform="translate(-708.83 -297.46)" style="fill:#00a9c8"/><path d="M999.84,318.41h92.7L1079,302a12.6,12.6,0,0,0-9.7-4.57H999.84" transform="translate(-708.83 -297.46)" style="fill:#087593"/><path d="M999.84,468.42H1283.4l-43.78-55.65a12.14,12.14,0,0,0-9.56-4.69H999.84" transform="translate(-708.83 -297.46)" style="fill:#087593"/></svg>