<svg xmlns="http://www.w3.org/2000/svg" width="94" height="94" viewBox="0 0 120 120">
  <g fill="none" fill-rule="evenodd" transform="translate(0 0)">
    <g transform="rotate(-5 109.76 3.692)">
      <path stroke="#001CB3" stroke-linecap="round" stroke-width="5.94" d="M51.1644737,6.61971831 C30.2466888,6.61971831 13.2894737,23.5130867 13.2894737,44.3521127 C13.2894737,65.1911387 30.2466888,82.084507 51.1644737,82.084507 L51.1644737,82.084507 C72.0822586,82.084507 89.0394737,65.1911387 89.0394737,44.3521127 C89.0394737,28.426364 79.1357295,14.8050493 65.129184,9.26727008" transform="rotate(11 51.164 44.352)"/>
      <path stroke="#09CA65" stroke-linecap="round" stroke-width="5.94" d="M100.003289,45.0703563 C100.003289,35.8488218 97.4281924,27.2264689 92.9553023,19.8780514 M2.32565789,45.0703563 C2.32565789,71.9417319 24.1915405,93.7252859 51.1644737,93.7252859"/>
      <path stroke="#9327DC" stroke-linecap="round" stroke-width="5.94" d="M63.4297939,34.5834015 C60.6079561,34.5834015 57.9230627,35.1967282 55.4902963,36.302895 C48.4316587,39.5124224 43.4955834,46.8709841 43.4955834,55.4355142 C43.4955834,63.39026 47.7537958,70.3046511 54.0158918,73.8205544 C56.819604,75.3947208 60.0250144,76.2876268 63.4297939,76.2876268" transform="rotate(-99 53.463 55.436)"/>
      <ellipse cx="42.692" cy="35.912" fill="#001CB3" rx="3.488" ry="3.475"/>
      <ellipse cx="56.646" cy="35.912" fill="#001CB3" rx="3.488" ry="3.475"/>
      <ellipse cx="3.322" cy="35.415" fill="#09CA65" rx="2.99" ry="2.979"/>
      <ellipse cx="98.01" cy="55.275" fill="#09CA65" rx="2.99" ry="2.979"/>
    </g>
  </g>
</svg>
